<svg xmlns="http://www.w3.org/2000/svg" width="760" height="270" viewBox="0 0 760 270">
  <rect width="760" height="270" fill="#f8fafc"/>
  <text x="380" y="30" text-anchor="middle" font-family="Arial" font-size="24" font-weight="bold" fill="#1f2937">Forward Propagation</text>

  <g font-family="Arial" font-size="16" fill="#1f2937">
    <circle cx="60" cy="100" r="24" fill="#dbeafe" stroke="#2563eb" stroke-width="2"/>
    <text x="60" y="106" text-anchor="middle">x1</text>

    <circle cx="60" cy="170" r="24" fill="#dbeafe" stroke="#2563eb" stroke-width="2"/>
    <text x="60" y="176" text-anchor="middle">x2</text>

    <circle cx="220" cy="70" r="24" fill="#dcfce7" stroke="#16a34a" stroke-width="2"/>
    <circle cx="220" cy="130" r="24" fill="#dcfce7" stroke="#16a34a" stroke-width="2"/>
    <circle cx="220" cy="190" r="24" fill="#dcfce7" stroke="#16a34a" stroke-width="2"/>

    <circle cx="420" cy="130" r="26" fill="#fef3c7" stroke="#d97706" stroke-width="2"/>
    <text x="420" y="137" text-anchor="middle">Output</text>

    <text x="110" y="76">Input layer</text>
    <text x="165" y="46">Hidden layer</text>
    <text x="486" y="106">Prediction</text>
  </g>

  <g stroke="#2c3e50" stroke-width="2" fill="none" marker-end="url(#arrow)">
    <defs>
      <marker id="arrow" markerWidth="10" markerHeight="10" refX="8" refY="4" orient="auto">
        <path d="M0,0 L0,8 L8,4 z" fill="#2c3e50"/>
      </marker>
    </defs>

    <line x1="84" y1="100" x2="196" y2="70"/>
    <line x1="84" y1="100" x2="196" y2="130"/>
    <line x1="84" y1="100" x2="196" y2="190"/>
    <line x1="84" y1="170" x2="196" y2="70"/>
    <line x1="84" y1="170" x2="196" y2="130"/>
    <line x1="84" y1="170" x2="196" y2="190"/>

    <line x1="244" y1="70" x2="394" y2="130"/>
    <line x1="244" y1="130" x2="394" y2="130"/>
    <line x1="244" y1="190" x2="394" y2="130"/>
  </g>
</svg>
